PathFileType	4	(X/Y/Z)	Patient3_R_KneeIso_Processed.trc
DataRate	CameraRate	NumFrames	NumMarkers	Units	OrigDataRate	OrigDataStartFrame	OrigNumFrames
100.000000000000	100.000000000000	4	33	mm	100.000000000000	226	       301
Frame#	Time	L.Toe			Neck			R.Toe			R.Shoulder			L.Wrist			L.Shank.Lateral			L.Elbow			R.Shank.Lateral			L.Shoulder			R.Midfoot.Lateral			L.Midfoot.Superior			R.Midfoot.Superior			R.Heel			R.Thigh.Lateral			L.Heel			R.Patella			L.Midfoot.Lateral			R.Elbow			R.Wrist			R.Shank.Inferior			Sternum			R.Thigh.Inferior			L.Shank.Inferior			R.Shank.Superior			L.Thigh.Superior			R.Thigh.Superior			R.Asis			L.Asis			L.Shank.Superior			L.Patella			Sacral			L.Thigh.Lateral			L.Thigh.Inferior			
		X1	Y1	Z1	X2	Y2	Z2	X3	Y3	Z3	X4	Y4	Z4	X5	Y5	Z5	X6	Y6	Z6	X7	Y7	Z7	X8	Y8	Z8	X9	Y9	Z9	X10	Y10	Z10	X11	Y11	Z11	X12	Y12	Z12	X13	Y13	Z13	X14	Y14	Z14	X15	Y15	Z15	X16	Y16	Z16	X17	Y17	Z17	X18	Y18	Z18	X19	Y19	Z19	X20	Y20	Z20	X21	Y21	Z21	X22	Y22	Z22	X23	Y23	Z23	X24	Y24	Z24	X25	Y25	Z25	X26	Y26	Z26	X27	Y27	Z27	X28	Y28	Z28	X29	Y29	Z29	X30	Y30	Z30	X31	Y31	Z31	X32	Y32	Z32	X33	Y33	Z33	

226	3.250000000000	650.679366216543	42.154332346518	367.126987202909	464.756211256574	1480.864808433690	345.162799926288	400.642397566480	106.787711007496	655.953349113529	511.175402074568	1460.016135295897	490.073404611421	517.347299603700	1071.761777655993	-52.257324154798	419.286041676849	322.334275874058	295.220086944209	330.594362459157	1138.641017228635	112.744594415253	468.589870817640	470.879834318861	643.882700619933	489.271670006383	1441.019683262232	197.990192778885	233.786141301286	244.457841941902	665.814462314403	532.791911284204	89.686820949420	388.884484140740	340.778241771628	222.436625249211	624.832799123633	174.965415294002	291.604873579806	592.689972429932	575.851187136511	693.894884665576	611.589269027151	363.903011351811	33.663008142803	437.595305333542	667.287576601024	500.631715700000	561.476070029622	435.389636065247	27.527602221577	365.170753068155	538.445703582164	1154.957345152779	663.920729071594	668.653708290315	1236.000031431687	463.545967626054	404.920851107965	330.036069108567	610.777163332507	600.727481642014	1384.085237475002	344.579950511514	664.722801995621	637.866162912063	547.093816263463	493.804885489426	229.525358252418	363.063529267863	554.681514482205	421.542681418052	599.870184609387	607.547226834214	720.468881320243	274.009988592360	648.152500562103	750.692320904844	542.179298028435	577.464526360067	993.793161282890	513.167426688557	578.107455220702	951.636421117483	251.800931349614	513.984714808837	380.411121881684	325.609357939277	558.417123000224	488.549017795799	330.894213220364	406.287225480174	1004.059559430441	383.332828553878	499.631411301052	651.195064825995	246.157030668933	577.557825939199	597.712571870934	301.358514235572	
227	3.260000000000	650.684966865428	42.141171138828	367.121853686941	464.706547594387	1480.869269875710	345.245153157937	406.908690037680	103.669473769437	655.156877884874	511.149178077142	1459.969164037731	490.140544024634	517.236187211250	1071.987157974985	-52.395361966862	419.269057705773	322.316212039549	295.209524966529	330.480982861250	1138.791676122173	112.631604947301	469.280500788780	468.706984662494	643.767543931414	489.217937811588	1441.083187014235	198.051799357920	237.930431780838	238.665558710620	665.825869328921	532.801542013133	89.686069897291	388.882369364787	345.118142225753	218.414665236441	624.463537120824	178.157596659927	285.092286303927	592.969207407683	575.820114633632	693.781461455692	611.313748104049	363.910003324729	33.664847070666	437.599576736002	667.367210274246	500.757638680825	561.058191786627	435.393706702794	27.529070140392	365.174830309481	538.441555613868	1154.850433115439	663.884330774591	668.619261926364	1235.958018425420	463.511849711193	407.546124971945	326.978837428714	610.527052525676	600.676794556930	1384.087078690069	344.606970136519	664.564660822750	637.751054362009	546.693221894474	493.802047351488	229.532630555634	363.053930087162	555.950454068550	420.752609481346	599.435503667008	607.505970841500	720.500655601755	273.980569003399	648.103076635228	750.621680894123	541.901644256945	577.437193191868	993.786283142737	513.084847894260	578.002975837996	951.661489307254	251.722348553617	513.956148383429	380.406450436131	325.588080773344	558.373278720282	488.552643684539	330.853281187414	406.195782731819	1004.007265345724	383.308760612863	499.601406377450	651.189925403109	246.123862792475	577.527797007738	597.727159448897	301.328857046854	
228	3.270000000000	650.689833005375	42.131137586051	367.117130306401	464.653871257730	1480.876103353733	345.330483035723	413.066989188866	100.695414002747	654.379598602582	511.122196604647	1459.923569497955	490.209990719795	517.118484444323	1072.194231233975	-52.527762363568	419.242226363615	322.301952395027	295.191488625763	330.364173171817	1138.939925720919	112.524209308470	469.938522172652	466.576850854018	643.658058661372	489.156814400767	1441.147423843897	198.116091419952	242.044537182890	233.026106718726	665.827558919396	532.810646251334	89.687276463237	388.878502636288	349.389725921177	214.515013744725	624.095513489334	181.348923466521	278.724874261065	593.224503802763	575.762913635842	693.666749952363	611.046984642332	363.916943034471	33.666632572449	437.603748529327	667.397340593119	500.872262524039	560.661103868620	435.397446334939	27.529921656131	365.179050922307	538.434053231576	1154.743589019831	663.849115786194	668.580271147523	1235.914910118750	463.477237154048	410.123763628195	324.027636070339	610.289722923773	600.621772471869	1384.088951479343	344.634125167206	664.374767074130	637.623434319320	546.303168916415	493.793584485330	229.540666644648	363.033137689170	557.155590867274	419.995285143923	599.016318116979	607.452510959100	720.534957392472	273.933142788456	648.031714070091	750.538871144425	541.628577196679	577.408543644852	993.777736151965	512.999498881058	577.886686776572	951.689208624227	251.638676015040	513.920983612226	380.399754956541	325.555441644694	558.330975144613	488.556129821268	330.796310780283	406.097136590573	1003.957593929936	383.286189088387	499.557956975837	651.187399116967	246.084224533853	577.494511746265	597.745747162942	301.280904806545	
229	3.280000000000	650.693899240466	42.124287225916	367.112798048635	464.598223486515	1480.885410748326	345.417992543908	419.113926448220	97.859920688137	653.627253320122	511.094339417284	1459.879960299856	490.281018930089	516.995149098803	1072.381526970374	-52.653335876409	419.205746377315	322.291597844327	295.166776223762	330.244645998229	1139.084992530165	112.423084003220	470.558264956784	464.488951354652	643.555626924299	489.088554576497	1441.212324401975	198.182377089823	246.122518782142	227.535073161790	665.821457425500	532.819099996128	89.690361692744	388.872984533101	353.589725040773	210.732454728471	623.732646039868	184.533152996923	272.496410954240	593.455502164320	575.677206238352	693.551060911333	610.790404239719	363.923812410394	33.668460359155	437.607777769327	667.373450455847	500.974721524083	560.287263086545	435.400901399313	27.530269450403	365.183416711518	538.422932109429	1154.638154570083	663.815392847527	668.536740156852	1235.871375163820	463.442489837219	412.650022407474	321.177514692451	610.066683007702	600.562704566923	1384.091229510429	344.661032209215	664.150755367383	637.482177670347	545.926593969135	493.779679284590	229.549257432079	363.001798933713	558.292586381113	419.268720041329	598.614226761168	607.387373044566	720.571157000202	273.864655003396	647.937018655506	750.442858632473	541.362316138057	577.379936135008	993.768102933389	512.910871605534	577.759086956243	951.719562402025	251.549294071088	513.879654104600	380.391226679155	325.511696854935	558.290693008424	488.559480066107	330.723123037192	405.992236151027	1003.910750229244	383.265191026374	499.500787226884	651.187501039237	246.038333762433	577.458894963571	597.768357200525	301.212587472812	
